<?xml version="1.0" encoding="utf-8"?>
<!-- Generator: Adobe Illustrator 24.0.3, SVG Export Plug-In . SVG Version: 6.00 Build 0)  -->
<svg version="1.1" id="Layer_1" xmlns="http://www.w3.org/2000/svg" xmlns:xlink="http://www.w3.org/1999/xlink" x="0px" y="0px"
	 viewBox="0 0 320 320" style="enable-background:new 0 0 320 320;" xml:space="preserve">
<style type="text/css">
	.st0{fill:url(#SVGID_1_);}
	.st1{fill:url(#SVGID_2_);}
</style>
<g>
	<linearGradient id="SVGID_1_" gradientUnits="userSpaceOnUse" x1="160" y1="89.7616" x2="160" y2="1.0414">
		<stop  offset="0" style="stop-color:#4D6218"/>
		<stop  offset="1" style="stop-color:#9EBC20"/>
	</linearGradient>
	<path class="st0" d="M120,69.9h80c11.5,0,22.6,1.5,33.2,4.4c2.3-18.4-1.1-37.6-11.1-54.9c-1.4-2.5-2.9-4.8-4.6-7.1
		c-2.5,1.2-5,2.4-7.5,3.8c-9.6,5.6-17.8,12.7-24.4,20.9c-4.3-10.7-10.8-20.7-19.4-29.4c-2-2-4.1-3.9-6.2-5.6
		c-2.1,1.8-4.2,3.6-6.2,5.6c-8.7,8.7-15.1,18.7-19.4,29.4c-6.6-8.2-14.8-15.3-24.4-20.9c-2.5-1.4-5-2.7-7.5-3.8
		c-1.6,2.3-3.1,4.6-4.6,7.1c-10,17.3-13.4,36.5-11.1,54.9C97.4,71.5,108.5,69.9,120,69.9z"/>
	<linearGradient id="SVGID_2_" gradientUnits="userSpaceOnUse" x1="236.7848" y1="83.3887" x2="68.9376" y2="333.7836">
		<stop  offset="0" style="stop-color:#F07B14"/>
		<stop  offset="1" style="stop-color:#D81F0D"/>
	</linearGradient>
	<path class="st1" d="M200,77.9h-80c-66.3,0-120,53.7-120,120s53.7,120,120,120h80c66.3,0,120-53.7,120-120S266.3,77.9,200,77.9z"/>
</g>
</svg>
